<?xml version="1.0" encoding="UTF-8"?>
<svg id="Layer_2" data-name="Layer 2" xmlns="http://www.w3.org/2000/svg" viewBox="0 0 860.01 596.73">
  <defs>
    <style>
      .cls-1 {
        fill: #e73e78;
      }
    </style>
  </defs>
  <g id="Layer_1-2" data-name="Layer 1">
    <g>
      <path class="cls-1" d="M358.68,334.58c6.34,9.15,8.95,19.87,7.83,32.18-1.5,14.18-6.43,27.7-14.83,40.57-8.39,12.87-17.26,25.65-26.58,38.33-9.33,12.69-17.73,25.28-25.18,37.77-7.47,12.5-11.19,25.46-11.19,38.89,0,7.46,2.14,13.79,6.44,19.02,4.28,5.22,10.16,7.84,17.62,7.84s12.96-2.99,17.63-8.96c4.66-5.97,9.04-13.43,13.15-22.38,4.1-8.95,8.3-18.75,12.59-29.38,4.28-10.63,9.42-20.43,15.39-29.38,5.97-8.95,13.24-16.41,21.82-22.38,8.58-5.96,19.21-8.95,31.89-8.95,11.19,0,20.51,2.43,27.98,7.27,7.46,4.85,13.43,11.47,17.91,19.87,4.47,8.39,7.64,18.1,9.51,29.1,1.86,11.01,2.8,22.48,2.8,34.41,0,24.24-4.39,43.37-13.15,57.36-8.77,13.99-19.68,20.98-32.73,20.98-7.46,0-14.92-2.71-22.38-8.11-7.47-5.41-11.19-13.52-11.19-24.34s2.98-19.68,8.95-27.7c5.96-8.02,12.4-15.76,19.3-23.22,6.9-7.46,13.33-15.01,19.31-22.66,5.96-7.64,8.95-16.31,8.95-26.02,0-10.44-3.36-18.37-10.07-23.78-6.72-5.4-14.92-8.11-24.62-8.11-9.71.38-16.61,3.35-20.7,8.95-4.11,5.6-6.99,12.69-8.67,21.26-1.68,8.59-3.08,18-4.2,28.26-1.12,10.26-3.27,19.96-6.44,29.1-3.17,9.15-8.3,17.15-15.39,24.06-7.09,6.9-17.72,11.28-31.89,13.15-2.24.37-4.39.65-6.43.84-2.06.18-4.01.28-5.88.28-10.07,0-18.56-1.68-25.46-5.04-6.91-3.36-13.43-7.09-19.58-11.19-6.16-4.11-12.31-7.83-18.47-11.19-6.16-3.36-13.34-5.04-21.54-5.04-13.06,0-25.93,2.05-38.61,6.16-12.69,4.1-25.56,6.16-38.61,6.16-18.66,0-36.09-2.52-52.32-7.56-16.23-5.04-30.41-12.49-42.53-22.38-12.12-9.88-21.64-22.19-28.54-36.93-6.91-14.73-10.35-31.98-10.35-51.76,0-16.41,3.36-30.96,10.07-43.64,6.72-12.68,13.99-23.87,21.82-33.58,7.84-9.7,15.11-17.9,21.82-24.62,6.71-6.71,10.07-12.12,10.07-16.23,0-6.72-5.23-10.07-15.67-10.07-4.85,0-9.7.56-14.55,1.68-4.85,1.12-11.19,1.68-19.03,1.68-14.55,0-25.65-3.72-33.3-11.19-7.65-7.46-11.47-17.71-11.47-30.78,0-20.14,4.1-39.63,12.31-58.47,8.2-18.83,19.21-35.34,33.01-49.52,13.79-14.17,29.56-25.55,47.28-34.13,17.71-8.58,36.09-12.87,55.12-12.87,11.93,0,22.01,1.87,30.22,5.6,8.2,3.73,15.66,7.93,22.38,12.59,6.71,4.67,13.15,8.87,19.3,12.59,6.16,3.73,13.33,5.6,21.54,5.6,7.46,0,13.24-1.68,17.35-5.04,4.1-3.36,8.11-7.18,12.03-11.47,3.92-4.28,8.39-8.11,13.43-11.47,5.04-3.36,12.22-5.04,21.55-5.04,12.31,0,22.75,4.11,31.33,12.31,8.58,8.21,15.57,18.75,20.99,31.61,5.4,12.87,9.41,27.24,12.03,43.09,2.61,15.86,3.92,31.25,3.92,46.16,0,16.79-3.64,29.94-10.91,39.45-7.27,9.51-17.44,14.27-30.5,14.27-10.82,0-20.24-2.88-28.26-8.67-8.03-5.78-12.03-15.19-12.03-28.26,0-8.95,2.14-17.91,6.43-26.86,4.28-8.95,9.14-18.18,14.55-27.7,5.4-9.51,10.26-19.49,14.55-29.94,4.28-10.44,6.44-21.63,6.44-33.57,0-6.34-1.87-12.4-5.6-18.19-3.73-5.78-11.38-8.67-22.94-8.67-8.21,0-14.27,2.52-18.19,7.55-3.92,5.04-6.71,11.19-8.39,18.47-1.68,7.27-2.89,15.3-3.64,24.06-.75,8.77-1.96,16.79-3.64,24.06-1.68,7.27-4.47,13.43-8.39,18.47-3.92,5.04-10.17,7.55-18.75,7.55-6.35,0-11.47-2.52-15.39-7.55-3.92-5.04-7.56-11.38-10.91-19.03-3.35-7.64-6.71-15.95-10.07-24.9-3.36-8.95-7.65-17.25-12.87-24.9-5.23-7.64-11.57-13.99-19.03-19.03-7.46-5.04-16.98-7.55-28.54-7.55-5.6,0-11.19.56-16.79,1.68-5.59,1.12-10.73,2.9-15.39,5.32-4.67,2.43-8.39,5.41-11.19,8.95-2.8,3.55-4.2,7.75-4.2,12.59,0,7.46,2.61,12.59,7.84,15.39,5.22,2.8,10.91,4.85,17.07,6.16,6.16,1.31,11.84,3.08,17.07,5.32,5.22,2.24,7.84,6.53,7.84,12.87s-3.45,11.47-10.35,15.39c-6.91,3.92-15.49,7.37-25.74,10.35-10.26,2.99-21.46,5.87-33.57,8.67-12.13,2.8-23.32,6.34-33.58,10.63-10.26,4.3-18.84,9.71-25.74,16.23-6.91,6.53-10.35,14.83-10.35,24.9,0,8.96,2.89,16.33,8.67,22.1,5.78,5.79,13.52,8.67,23.22,8.67,10.82,0,20.23-2.42,28.26-7.27,8.02-4.85,15.39-10.26,22.1-16.23,6.72-5.96,13.15-11.37,19.31-16.23,6.16-4.84,12.59-7.27,19.3-7.27,6.34,0,11.37,1.31,15.11,3.92,3.73,2.61,5.6,6.91,5.6,12.87,0,5.59-2.15,11.1-6.44,16.51-4.29,5.41-9.71,11.01-16.23,16.78-6.53,5.79-13.53,11.67-20.99,17.63-7.47,5.97-14.46,12.5-20.99,19.58-6.53,7.09-11.94,14.64-16.23,22.66-4.29,8.03-6.44,16.88-6.44,26.58,0,19.78,9.51,29.66,28.54,29.66,6.71,0,13.33-2.89,19.86-8.67,6.52-5.78,13.15-12.03,19.87-18.75,6.72-6.71,13.61-12.96,20.7-18.75,7.08-5.78,14.73-8.67,22.94-8.67s13.61,2.15,17.35,6.44c3.72,4.29,5.59,9.98,5.59,17.07,0,6.72-2.24,13.62-6.71,20.7-4.48,7.09-9.43,14.46-14.83,22.1-5.41,7.65-10.35,15.86-14.83,24.62-4.48,8.77-6.72,18.38-6.72,28.81,0,15.67,5.04,27.24,15.11,34.7,10.07,7.46,22.75,11.19,38.05,11.19,10.82,0,19.86-2.61,27.14-7.84,7.27-5.22,13.33-12.03,18.19-20.42,4.84-8.39,8.67-17.9,11.47-28.54,2.8-10.63,4.85-21.26,6.16-31.89,1.31-10.63,2.05-20.89,2.24-30.78.19-9.88.28-18.18.28-24.9,0-17.15,3.92-30.78,11.75-40.85,7.83-10.07,20.7-15.11,38.61-15.11,15.67,1.5,26.67,6.81,33.01,15.95Z"/>
      <path class="cls-1" d="M706.73,138.54c4.09-4.56,8.74-6.84,13.94-6.84,5.95,0,13.57,2.28,22.85,6.84,9.29,4.56,19.04,11.19,29.26,19.88,10.23,8.7,20.54,19.56,30.94,32.6,10.41,13.04,19.79,28.04,28.15,44.99,8.36,16.95,15.14,35.64,20.34,56.07,5.2,20.44,7.81,42.82,7.81,67.15,0,16.09-1.67,34.34-5.02,54.76-3.35,20.44-9.3,39.77-17.84,58.03-8.54,18.25-20.25,33.58-35.12,45.96-14.86,12.39-34,18.58-57.41,18.58s-44.77-5.65-64.1-16.95c-19.32-11.3-37.07-25.32-53.23-42.05-16.16-16.73-30.94-34.88-44.31-54.44-13.38-19.56-25.82-37.7-37.34-54.44-11.51-16.73-22.57-30.75-33.17-42.05-10.59-11.3-20.9-16.95-30.94-16.95-8.54,0-15.05,3.05-19.51,9.13-4.46,6.09-6.69,13.69-6.69,22.82,0,8.26,2.6,15.44,7.8,21.51s11.8,11.64,19.79,16.63c7.99,5,16.64,9.45,25.92,13.36,9.29,3.91,17.93,8.05,25.92,12.39,7.99,4.35,14.59,9.02,19.79,14.02,5.21,5.01,7.8,10.76,7.8,17.28v2.61c-.74,6.95-2.79,11.96-6.13,14.99-3.34,3.05-7.25,5.22-11.7,6.52-4.46,1.3-9.1,2.28-13.94,2.93-4.82.65-9.38,1.63-13.65,2.94-4.27,1.3-7.81,3.7-10.59,7.17-2.79,3.48-4.18,8.91-4.18,16.3,0,14.79,6.32,22.17,18.95,22.17,5.21,0,10.03-1.52,14.49-4.56,4.46-3.04,9.02-6.41,13.66-10.11,4.65-3.69,9.57-7.06,14.77-10.1,5.21-3.04,11.15-4.57,17.83-4.57,7.06,0,13.66,2.4,19.79,7.17,6.13,4.79,9.57,12.83,10.31,24.12,0,12.18-3.25,20.44-9.76,24.78-6.49,4.35-14.39,6.52-23.69,6.52-11.89,0-22.94-1.63-33.17-4.89-10.22-3.26-19.13-7.6-26.76-13.04-7.61-5.43-13.66-11.84-18.11-19.23-4.46-7.38-6.69-14.99-6.69-22.82,0-6.52.93-11.95,2.79-16.3,1.86-4.34,3.81-8.15,5.85-11.41,2.05-3.26,4-6.73,5.85-10.43,1.86-3.69,2.79-8.15,2.79-13.37,0-6.52-1.85-12.49-5.57-17.93-3.71-5.43-8.27-10.65-13.66-15.65-5.38-4.99-11.23-9.99-17.56-14.99-6.31-4.99-11.89-10.11-16.72-15.32-10.4-11.3-19.04-23.69-25.92-37.16-6.87-13.47-10.31-28.46-10.31-44.99,0-10.43,1.12-19.12,3.35-26.08,2.23-6.95,5.02-12.6,8.36-16.95,3.34-4.34,7.16-7.38,11.42-9.13,4.28-1.73,8.64-2.61,13.1-2.61,10.03,0,19.6,4.02,28.71,12.06,9.11,8.05,17.83,18.37,26.2,30.97,8.36,12.61,16.54,26.73,24.53,42.37,7.99,15.65,15.89,31.08,23.69,46.29,4.46,8.7,10.87,20,19.23,33.9,8.36,13.91,17.75,27.49,28.15,40.75,10.41,13.26,21.37,24.56,32.89,33.9,11.52,9.35,22.67,14.02,33.44,14.02,7.44,0,13.38-1.41,17.84-4.24,4.46-2.82,7.99-6.62,10.59-11.41,2.6-4.78,4.28-10.21,5.02-16.3.75-6.08,1.12-12.38,1.12-18.91,0-6.08-.18-12.27-.56-18.58-.37-6.3-.56-12.28-.56-17.93,0-19.12,7.44-28.69,22.3-28.69,4.46,0,9.11,1.63,13.93,4.89,4.83,3.26,10.13,6.85,15.89,10.76,5.76,3.91,12.18,7.5,19.23,10.76,7.06,3.26,15.05,4.89,23.97,4.89,14.13,0,25.28-5.21,33.45-15.65,8.17-10.43,12.26-26.73,12.26-48.9,0-13.47-1.67-26.83-5.02-40.09-3.35-13.26-8.17-25.2-14.49-35.86-6.32-10.65-14.02-19.33-23.13-26.08-9.1-6.73-19.23-10.1-30.38-10.1-11.89,0-20.9,3.05-27.04,9.13-6.13,6.09-10.59,13.69-13.38,22.82-2.79,9.13-4.64,19.13-5.57,29.99-.92,10.87-2.04,20.86-3.35,29.99-1.3,9.13-3.62,16.74-6.97,22.82-3.35,6.09-8.92,9.13-16.72,9.13s-13.84-4.24-18.11-12.71c-4.27-8.48-8.08-19.12-11.43-31.94-3.35-12.82-6.59-26.62-9.75-41.4-3.15-14.77-7.43-28.58-12.82-41.4-5.38-12.82-12.44-23.47-21.18-31.95-8.73-8.48-20.16-12.71-34.28-12.71-11.89,0-22.29,1.09-31.21,3.26-8.92,2.18-17.18,4.46-24.8,6.85-7.61,2.39-14.95,4.67-22.02,6.84-7.05,2.18-14.67,3.26-22.85,3.26-16.35,0-28.15-3.59-35.4-10.76s-10.87-15.75-10.87-25.75c0-11.3,3.62-20.1,10.87-26.4,7.25-6.3,15.7-11.08,25.36-14.34,9.67-3.26,19.32-5.43,28.98-6.52,9.67-1.08,17.1-2.06,22.29-2.94,4.83-.86,10.5-1.95,17-3.26,6.51-1.3,12.73-3.8,18.67-7.5,5.95-3.69,10.87-9.02,14.77-15.97,3.9-6.95,5.86-16.3,5.86-28.04,0-16.08-3.99-28.25-11.99-36.51-7.99-8.25-19.23-12.39-33.72-12.39-9.66,0-17.46,2.07-23.41,6.19-5.94,4.13-10.77,9.24-14.49,15.32-3.71,6.09-6.87,12.71-9.48,19.88-2.59,7.17-5.57,13.92-8.92,20.21-3.35,6.3-7.33,11.63-11.98,15.97-4.64,4.35-11.05,6.74-19.23,7.17-8.55.88-15.51-2.61-20.9-10.43-5.38-7.83-8.08-16.51-8.08-26.08,0-37.38,34.56-56.07,103.68-56.07,12.64,0,25.36.98,38.18,2.93,12.82,1.95,24.44,5.33,34.84,10.11,10.41,4.79,18.95,11.52,25.64,20.21,6.69,8.7,10.04,19.56,10.04,32.6s-3.43,23.14-10.31,30.31c-6.87,7.17-14.68,12.5-23.41,15.97-8.72,3.48-17.18,5.54-25.36,6.19-8.17.65-13.56.98-16.16.98h-13.38c-5.94,0-11.98.65-18.11,1.95s-11.51,3.59-16.16,6.85c-4.65,3.26-6.97,8.15-6.97,14.67v1.96c.37,6.52,2.51,11.19,6.41,14.02,3.9,2.83,9.2,4.79,15.89,5.87,6.69,1.09,14.86,1.41,24.53.98,9.67-.42,20.62-.65,32.89-.65,17.83,0,32.42,5.22,43.75,15.65,11.34,10.43,20.72,22.06,28.15,34.88,7.44,12.82,13.94,24.45,19.51,34.88,5.58,10.43,11.53,15.65,17.84,15.65,11.9,0,17.84-8.48,17.84-25.43,0-9.13-.93-17.28-2.79-24.45-1.86-7.17-3.99-14.02-6.41-20.54-2.41-6.52-4.54-12.71-6.41-18.58-1.86-5.87-2.79-11.84-2.79-17.93,0-9.13,2.05-15.97,6.13-20.54Z"/>
    </g>
  </g>
</svg>